<mxfile host="Electron" modified="2024-02-11T10:49:12.465Z" agent="Mozilla/5.0 (Windows NT 10.0; Win64; x64) AppleWebKit/537.36 (KHTML, like Gecko) draw.io/23.0.2 Chrome/120.0.6099.109 Electron/28.1.0 Safari/537.36" etag="ah6WbxJ6YLS28uHXhobq" version="23.0.2" type="device">
  <diagram id="C5RBs43oDa-KdzZeNtuy" name="Page-1">
    <mxGraphModel dx="676" dy="420" grid="1" gridSize="10" guides="1" tooltips="1" connect="1" arrows="1" fold="1" page="1" pageScale="1" pageWidth="827" pageHeight="1169" math="0" shadow="0">
      <root>
        <mxCell id="WIyWlLk6GJQsqaUBKTNV-0" />
        <mxCell id="WIyWlLk6GJQsqaUBKTNV-1" parent="WIyWlLk6GJQsqaUBKTNV-0" />
        <mxCell id="Hyi2GzqdrZCViDuYcZH3-1" value="n=3 to 1000 ; n+=2" style="shape=trapezoid;perimeter=trapezoidPerimeter;whiteSpace=wrap;html=1;fixedSize=1;container=0;movable=1;resizable=1;rotatable=1;deletable=1;editable=1;locked=0;connectable=1;" parent="WIyWlLk6GJQsqaUBKTNV-1" vertex="1">
          <mxGeometry x="32.45999999999992" y="200" width="124.58" height="50.78" as="geometry" />
        </mxCell>
        <mxCell id="Hyi2GzqdrZCViDuYcZH3-33" value="" style="endArrow=classic;html=1;rounded=0;entryX=0.938;entryY=0.601;entryDx=0;entryDy=0;entryPerimeter=0;exitX=1;exitY=0.5;exitDx=0;exitDy=0;movable=1;resizable=1;rotatable=1;deletable=1;editable=1;locked=0;connectable=1;" parent="WIyWlLk6GJQsqaUBKTNV-1" source="Hyi2GzqdrZCViDuYcZH3-20" target="Hyi2GzqdrZCViDuYcZH3-1" edge="1">
          <mxGeometry width="50" height="50" relative="1" as="geometry">
            <mxPoint x="124.64406779661016" y="595.7484375" as="sourcePoint" />
            <mxPoint x="184.4406779661017" y="281.25" as="targetPoint" />
            <Array as="points">
              <mxPoint x="300" y="520" />
              <mxPoint x="300" y="230" />
            </Array>
          </mxGeometry>
        </mxCell>
        <mxCell id="FiZKXfrmjTzjne6S1mKz-21" value="" style="group" vertex="1" connectable="0" parent="WIyWlLk6GJQsqaUBKTNV-1">
          <mxGeometry x="34.94915254237287" y="250.78125" width="229.22033898305085" height="284.375" as="geometry" />
        </mxCell>
        <mxCell id="Hyi2GzqdrZCViDuYcZH3-4" value="" style="endArrow=none;html=1;rounded=0;movable=1;resizable=1;rotatable=1;deletable=1;editable=1;locked=0;connectable=1;" parent="FiZKXfrmjTzjne6S1mKz-21" edge="1">
          <mxGeometry width="50" height="50" relative="1" as="geometry">
            <mxPoint x="59.37803389830515" y="20.3125" as="sourcePoint" />
            <mxPoint x="59.37803389830515" as="targetPoint" />
          </mxGeometry>
        </mxCell>
        <mxCell id="Hyi2GzqdrZCViDuYcZH3-5" value="i=1;i&amp;lt;ptr;i++" style="shape=trapezoid;perimeter=trapezoidPerimeter;whiteSpace=wrap;html=1;fixedSize=1;container=0;movable=1;resizable=1;rotatable=1;deletable=1;editable=1;locked=0;connectable=1;" parent="FiZKXfrmjTzjne6S1mKz-21" vertex="1">
          <mxGeometry y="20.3125" width="109.62711864406779" height="30.46875" as="geometry" />
        </mxCell>
        <mxCell id="Hyi2GzqdrZCViDuYcZH3-8" value="" style="endArrow=classic;html=1;rounded=0;movable=1;resizable=1;rotatable=1;deletable=1;editable=1;locked=0;connectable=1;" parent="FiZKXfrmjTzjne6S1mKz-21" edge="1">
          <mxGeometry width="50" height="50" relative="1" as="geometry">
            <mxPoint x="69.76271186440681" y="52.8125" as="sourcePoint" />
            <mxPoint x="109.62711864406782" y="93.4375" as="targetPoint" />
            <Array as="points">
              <mxPoint x="69.76271186440681" y="93.4375" />
              <mxPoint x="89.69491525423729" y="93.4375" />
            </Array>
          </mxGeometry>
        </mxCell>
        <mxCell id="Hyi2GzqdrZCViDuYcZH3-13" value="" style="endArrow=none;html=1;rounded=0;movable=1;resizable=1;rotatable=1;deletable=1;editable=1;locked=0;connectable=1;" parent="FiZKXfrmjTzjne6S1mKz-21" edge="1">
          <mxGeometry width="50" height="50" relative="1" as="geometry">
            <mxPoint x="49.83050847457628" y="111.71875" as="sourcePoint" />
            <mxPoint x="49.83050847457628" y="50.78125" as="targetPoint" />
            <Array as="points">
              <mxPoint x="49.83050847457628" y="71.09375" />
            </Array>
          </mxGeometry>
        </mxCell>
        <mxCell id="Hyi2GzqdrZCViDuYcZH3-14" value="increase&lt;br&gt;counter +1" style="rounded=0;whiteSpace=wrap;html=1;container=0;movable=1;resizable=1;rotatable=1;deletable=1;editable=1;locked=0;connectable=1;" parent="FiZKXfrmjTzjne6S1mKz-21" vertex="1">
          <mxGeometry x="109.62711864406782" y="71.09375" width="79.72881355932205" height="40.625" as="geometry" />
        </mxCell>
        <mxCell id="Hyi2GzqdrZCViDuYcZH3-15" value="&lt;font style=&quot;font-size: 8px;&quot;&gt;n % prime[i] == 0&lt;/font&gt;" style="rhombus;whiteSpace=wrap;html=1;container=0;movable=1;resizable=1;rotatable=1;deletable=1;editable=1;locked=0;connectable=1;" parent="FiZKXfrmjTzjne6S1mKz-21" vertex="1">
          <mxGeometry x="7.510847457627051" y="111.71875" width="84.64" height="63.44" as="geometry" />
        </mxCell>
        <mxCell id="Hyi2GzqdrZCViDuYcZH3-17" value="" style="endArrow=classic;html=1;rounded=0;entryX=0.933;entryY=0.627;entryDx=0;entryDy=0;entryPerimeter=0;movable=1;resizable=1;rotatable=1;deletable=1;editable=1;locked=0;connectable=1;" parent="FiZKXfrmjTzjne6S1mKz-21" target="Hyi2GzqdrZCViDuYcZH3-5" edge="1">
          <mxGeometry width="50" height="50" relative="1" as="geometry">
            <mxPoint x="89.69491525423729" y="141.7609375" as="sourcePoint" />
            <mxPoint x="109.62711864406782" y="40.625" as="targetPoint" />
            <Array as="points">
              <mxPoint x="209.28813559322032" y="142.1875" />
              <mxPoint x="209.28813559322032" y="40.625" />
            </Array>
          </mxGeometry>
        </mxCell>
        <mxCell id="Hyi2GzqdrZCViDuYcZH3-19" value="No" style="text;html=1;strokeColor=none;fillColor=none;align=center;verticalAlign=middle;whiteSpace=wrap;rounded=0;container=0;movable=1;resizable=1;rotatable=1;deletable=1;editable=1;locked=0;connectable=1;" parent="FiZKXfrmjTzjne6S1mKz-21" vertex="1">
          <mxGeometry x="109.62711864406782" y="121.875" width="49.83050847457627" height="20.3125" as="geometry" />
        </mxCell>
        <mxCell id="Hyi2GzqdrZCViDuYcZH3-22" value="" style="endArrow=classic;html=1;rounded=0;movable=1;resizable=1;rotatable=1;deletable=1;editable=1;locked=0;connectable=1;" parent="FiZKXfrmjTzjne6S1mKz-21" edge="1">
          <mxGeometry width="50" height="50" relative="1" as="geometry">
            <mxPoint x="49.411932203389824" y="173.671875" as="sourcePoint" />
            <mxPoint x="49.411932203389824" y="214.296875" as="targetPoint" />
            <Array as="points">
              <mxPoint x="49.411932203389824" y="173.671875" />
            </Array>
          </mxGeometry>
        </mxCell>
        <mxCell id="Hyi2GzqdrZCViDuYcZH3-25" value="break" style="rounded=0;whiteSpace=wrap;html=1;container=0;movable=1;resizable=1;rotatable=1;deletable=1;editable=1;locked=0;connectable=1;" parent="FiZKXfrmjTzjne6S1mKz-21" vertex="1">
          <mxGeometry x="4.983050847457662" y="213.28125" width="84.71186440677965" height="20.3125" as="geometry" />
        </mxCell>
        <mxCell id="Hyi2GzqdrZCViDuYcZH3-26" value="Yes" style="text;html=1;strokeColor=none;fillColor=none;align=center;verticalAlign=middle;whiteSpace=wrap;rounded=0;container=0;movable=1;resizable=1;rotatable=1;deletable=1;editable=1;locked=0;connectable=1;" parent="FiZKXfrmjTzjne6S1mKz-21" vertex="1">
          <mxGeometry x="47.338983050847446" y="182.8125" width="49.83050847457627" height="20.3125" as="geometry" />
        </mxCell>
        <mxCell id="Hyi2GzqdrZCViDuYcZH3-29" value="" style="endArrow=none;html=1;rounded=0;movable=1;resizable=1;rotatable=1;deletable=1;editable=1;locked=0;connectable=1;" parent="FiZKXfrmjTzjne6S1mKz-21" edge="1">
          <mxGeometry width="50" height="50" relative="1" as="geometry">
            <mxPoint x="49.83050847457628" y="253.90625" as="sourcePoint" />
            <mxPoint x="49.49166101694914" y="233.59375" as="targetPoint" />
          </mxGeometry>
        </mxCell>
        <mxCell id="Hyi2GzqdrZCViDuYcZH3-27" value="" style="shape=trapezoid;perimeter=trapezoidPerimeter;whiteSpace=wrap;html=1;fixedSize=1;rotation=-180;container=0;movable=1;resizable=1;rotatable=1;deletable=1;editable=1;locked=0;connectable=1;" parent="FiZKXfrmjTzjne6S1mKz-21" vertex="1">
          <mxGeometry y="253.90625" width="109.62711864406779" height="30.46875" as="geometry" />
        </mxCell>
        <mxCell id="FiZKXfrmjTzjne6S1mKz-11" value="" style="endArrow=classic;html=1;rounded=0;movable=1;resizable=1;rotatable=1;deletable=1;editable=1;locked=0;connectable=1;entryX=0.5;entryY=0;entryDx=0;entryDy=0;" edge="1" parent="WIyWlLk6GJQsqaUBKTNV-1">
          <mxGeometry width="50" height="50" relative="1" as="geometry">
            <mxPoint x="204" y="624.84" as="sourcePoint" />
            <mxPoint x="203.99999999999994" y="643.84" as="targetPoint" />
            <Array as="points">
              <mxPoint x="203.440813559322" y="638.55875" />
            </Array>
          </mxGeometry>
        </mxCell>
        <mxCell id="Hyi2GzqdrZCViDuYcZH3-20" value="ptr == i" style="rhombus;whiteSpace=wrap;html=1;container=0;movable=1;resizable=1;rotatable=1;deletable=1;editable=1;locked=0;connectable=1;" parent="WIyWlLk6GJQsqaUBKTNV-1" vertex="1">
          <mxGeometry x="164.91525423728814" y="490.30875000000003" width="79.72881355932205" height="60.9375" as="geometry" />
        </mxCell>
        <mxCell id="FiZKXfrmjTzjne6S1mKz-34" value="" style="edgeStyle=orthogonalEdgeStyle;rounded=0;orthogonalLoop=1;jettySize=auto;html=1;" edge="1" parent="WIyWlLk6GJQsqaUBKTNV-1" source="Hyi2GzqdrZCViDuYcZH3-28">
          <mxGeometry relative="1" as="geometry">
            <mxPoint x="346.86440677966107" y="668" as="targetPoint" />
          </mxGeometry>
        </mxCell>
        <mxCell id="Hyi2GzqdrZCViDuYcZH3-28" value="" style="shape=trapezoid;perimeter=trapezoidPerimeter;whiteSpace=wrap;html=1;fixedSize=1;rotation=-180;container=0;movable=1;resizable=1;rotatable=1;deletable=1;editable=1;locked=0;connectable=1;" parent="WIyWlLk6GJQsqaUBKTNV-1" vertex="1">
          <mxGeometry x="140" y="642.6525" width="124.57627118644068" height="50.78125" as="geometry" />
        </mxCell>
        <mxCell id="Hyi2GzqdrZCViDuYcZH3-34" value="" style="endArrow=classic;html=1;rounded=0;movable=1;resizable=1;rotatable=1;deletable=1;editable=1;locked=0;connectable=1;entryX=0.5;entryY=0;entryDx=0;entryDy=0;" parent="WIyWlLk6GJQsqaUBKTNV-1" edge="1" target="FiZKXfrmjTzjne6S1mKz-8">
          <mxGeometry width="50" height="50" relative="1" as="geometry">
            <mxPoint x="204.440813559322" y="551.24625" as="sourcePoint" />
            <mxPoint x="204.77966101694915" y="591.87125" as="targetPoint" />
            <Array as="points">
              <mxPoint x="204.440813559322" y="571.55875" />
            </Array>
          </mxGeometry>
        </mxCell>
        <mxCell id="Hyi2GzqdrZCViDuYcZH3-36" value="Yes" style="text;html=1;strokeColor=none;fillColor=none;align=center;verticalAlign=middle;whiteSpace=wrap;rounded=0;container=0;movable=1;resizable=1;rotatable=1;deletable=1;editable=1;locked=0;connectable=1;" parent="WIyWlLk6GJQsqaUBKTNV-1" vertex="1">
          <mxGeometry x="209.44999999999993" y="558.12" width="35.19" height="18.52" as="geometry" />
        </mxCell>
        <mxCell id="Hyi2GzqdrZCViDuYcZH3-37" value="No" style="text;html=1;strokeColor=none;fillColor=none;align=center;verticalAlign=middle;whiteSpace=wrap;rounded=0;container=0;movable=1;resizable=1;rotatable=1;deletable=1;editable=1;locked=0;connectable=1;" parent="WIyWlLk6GJQsqaUBKTNV-1" vertex="1">
          <mxGeometry x="244.64542372881357" y="500.46500000000003" width="49.83050847457627" height="20.3125" as="geometry" />
        </mxCell>
        <mxCell id="FiZKXfrmjTzjne6S1mKz-8" value="prime[ptr++] = n" style="rounded=0;whiteSpace=wrap;html=1;" vertex="1" parent="WIyWlLk6GJQsqaUBKTNV-1">
          <mxGeometry x="149.77999999999997" y="576.64" width="110" height="50" as="geometry" />
        </mxCell>
        <mxCell id="FiZKXfrmjTzjne6S1mKz-31" value="" style="endArrow=classic;html=1;rounded=0;exitX=0;exitY=0.5;exitDx=0;exitDy=0;entryX=0;entryY=0.5;entryDx=0;entryDy=0;" edge="1" parent="WIyWlLk6GJQsqaUBKTNV-1" source="Hyi2GzqdrZCViDuYcZH3-27" target="Hyi2GzqdrZCViDuYcZH3-20">
          <mxGeometry width="50" height="50" relative="1" as="geometry">
            <mxPoint x="140" y="521" as="sourcePoint" />
            <mxPoint x="160" y="520" as="targetPoint" />
          </mxGeometry>
        </mxCell>
        <mxCell id="FiZKXfrmjTzjne6S1mKz-35" value="" style="group" vertex="1" connectable="0" parent="WIyWlLk6GJQsqaUBKTNV-1">
          <mxGeometry x="330" y="660" width="259" height="240" as="geometry" />
        </mxCell>
        <mxCell id="FiZKXfrmjTzjne6S1mKz-23" value="" style="group" vertex="1" connectable="0" parent="FiZKXfrmjTzjne6S1mKz-35">
          <mxGeometry width="101.45999999999992" height="170" as="geometry" />
        </mxCell>
        <mxCell id="FiZKXfrmjTzjne6S1mKz-15" value="" style="endArrow=none;html=1;rounded=0;exitX=0.478;exitY=1.016;exitDx=0;exitDy=0;exitPerimeter=0;" edge="1" parent="FiZKXfrmjTzjne6S1mKz-23" source="FiZKXfrmjTzjne6S1mKz-12">
          <mxGeometry width="50" height="50" relative="1" as="geometry">
            <mxPoint x="50" y="40" as="sourcePoint" />
            <mxPoint x="49" y="60" as="targetPoint" />
            <Array as="points" />
          </mxGeometry>
        </mxCell>
        <mxCell id="FiZKXfrmjTzjne6S1mKz-16" value="print[ptr++] = n" style="shape=parallelogram;perimeter=parallelogramPerimeter;whiteSpace=wrap;html=1;fixedSize=1;" vertex="1" parent="FiZKXfrmjTzjne6S1mKz-23">
          <mxGeometry x="1" y="60" width="99" height="50" as="geometry" />
        </mxCell>
        <mxCell id="FiZKXfrmjTzjne6S1mKz-17" value="" style="endArrow=none;html=1;rounded=0;exitX=0.478;exitY=1.016;exitDx=0;exitDy=0;exitPerimeter=0;" edge="1" parent="FiZKXfrmjTzjne6S1mKz-23">
          <mxGeometry width="50" height="50" relative="1" as="geometry">
            <mxPoint x="50.329999999999984" y="110" as="sourcePoint" />
            <mxPoint x="50.329999999999984" y="139" as="targetPoint" />
            <Array as="points" />
          </mxGeometry>
        </mxCell>
        <mxCell id="FiZKXfrmjTzjne6S1mKz-19" value="" style="shape=trapezoid;perimeter=trapezoidPerimeter;whiteSpace=wrap;html=1;fixedSize=1;rotation=-180;" vertex="1" parent="FiZKXfrmjTzjne6S1mKz-23">
          <mxGeometry y="140" width="100" height="30" as="geometry" />
        </mxCell>
        <mxCell id="FiZKXfrmjTzjne6S1mKz-12" value="i=0;ii&amp;lt;ptr;i++" style="shape=trapezoid;perimeter=trapezoidPerimeter;whiteSpace=wrap;html=1;fixedSize=1;" vertex="1" parent="FiZKXfrmjTzjne6S1mKz-23">
          <mxGeometry x="1.4599999999999227" width="100" height="30" as="geometry" />
        </mxCell>
        <mxCell id="FiZKXfrmjTzjne6S1mKz-25" value="" style="endArrow=classic;html=1;rounded=0;exitX=0;exitY=0.25;exitDx=0;exitDy=0;entryX=1;entryY=0.25;entryDx=0;entryDy=0;" edge="1" parent="FiZKXfrmjTzjne6S1mKz-23" source="FiZKXfrmjTzjne6S1mKz-19" target="FiZKXfrmjTzjne6S1mKz-12">
          <mxGeometry width="50" height="50" relative="1" as="geometry">
            <mxPoint x="50" y="170" as="sourcePoint" />
            <mxPoint x="99" y="20" as="targetPoint" />
            <Array as="points">
              <mxPoint x="129" y="160" />
              <mxPoint x="129" y="10" />
            </Array>
          </mxGeometry>
        </mxCell>
        <mxCell id="FiZKXfrmjTzjne6S1mKz-26" value="" style="endArrow=classic;html=1;rounded=0;exitX=0.515;exitY=0.072;exitDx=0;exitDy=0;exitPerimeter=0;" edge="1" parent="FiZKXfrmjTzjne6S1mKz-35" source="FiZKXfrmjTzjne6S1mKz-19">
          <mxGeometry width="50" height="50" relative="1" as="geometry">
            <mxPoint x="50.44" y="170" as="sourcePoint" />
            <mxPoint x="149" y="210" as="targetPoint" />
            <Array as="points">
              <mxPoint x="49" y="210" />
            </Array>
          </mxGeometry>
        </mxCell>
        <mxCell id="FiZKXfrmjTzjne6S1mKz-27" value="print &quot;counter&quot;" style="shape=parallelogram;perimeter=parallelogramPerimeter;whiteSpace=wrap;html=1;fixedSize=1;" vertex="1" parent="FiZKXfrmjTzjne6S1mKz-35">
          <mxGeometry x="139" y="180" width="120" height="60" as="geometry" />
        </mxCell>
        <mxCell id="WIyWlLk6GJQsqaUBKTNV-2" value="" style="rounded=0;html=1;jettySize=auto;orthogonalLoop=1;fontSize=11;endArrow=block;endFill=0;endSize=8;strokeWidth=1;shadow=0;labelBackgroundColor=none;edgeStyle=orthogonalEdgeStyle;entryX=0.5;entryY=0;entryDx=0;entryDy=0;" parent="WIyWlLk6GJQsqaUBKTNV-1" edge="1" target="FiZKXfrmjTzjne6S1mKz-3">
          <mxGeometry relative="1" as="geometry">
            <mxPoint x="99.99999999999994" y="90" as="sourcePoint" />
            <mxPoint x="100.00000000000006" y="140" as="targetPoint" />
          </mxGeometry>
        </mxCell>
        <mxCell id="Hyi2GzqdrZCViDuYcZH3-0" value="how many time calculate?" style="rounded=1;whiteSpace=wrap;html=1;" parent="WIyWlLk6GJQsqaUBKTNV-1" vertex="1">
          <mxGeometry x="40" y="40" width="120" height="60" as="geometry" />
        </mxCell>
        <mxCell id="FiZKXfrmjTzjne6S1mKz-3" value="ptr=0&lt;br&gt;prime[ptr++]=2" style="rounded=0;whiteSpace=wrap;html=1;" vertex="1" parent="WIyWlLk6GJQsqaUBKTNV-1">
          <mxGeometry x="40" y="130" width="120" height="40" as="geometry" />
        </mxCell>
        <mxCell id="FiZKXfrmjTzjne6S1mKz-7" value="" style="endArrow=classic;html=1;rounded=0;" edge="1" parent="WIyWlLk6GJQsqaUBKTNV-1">
          <mxGeometry width="50" height="50" relative="1" as="geometry">
            <mxPoint x="99.70999999999998" y="170" as="sourcePoint" />
            <mxPoint x="99.70999999999998" y="200" as="targetPoint" />
          </mxGeometry>
        </mxCell>
      </root>
    </mxGraphModel>
  </diagram>
</mxfile>
